<mxfile host="app.diagrams.net" modified="2023-11-05T16:22:29.039Z" agent="Mozilla/5.0 (Windows NT 10.0; Win64; x64) AppleWebKit/537.36 (KHTML, like Gecko) Chrome/119.0.0.0 Safari/537.36" etag="kX2HW4fNoq5Cy7C_C1YQ" version="22.0.8" type="device">
  <diagram name="Page-1" id="jqTNK1S3pbugsj95zzoR">
    <mxGraphModel dx="1255" dy="833" grid="1" gridSize="10" guides="1" tooltips="1" connect="1" arrows="1" fold="1" page="1" pageScale="1" pageWidth="1100" pageHeight="850" math="0" shadow="0">
      <root>
        <mxCell id="0" />
        <mxCell id="1" parent="0" />
        <mxCell id="W6PKyMDmiwQLr7Aa5-MP-2" value="" style="rounded=0;whiteSpace=wrap;html=1;movable=1;resizable=1;rotatable=1;deletable=1;editable=1;locked=0;connectable=1;labelBackgroundColor=none;" vertex="1" parent="1">
          <mxGeometry x="160" width="800" height="740" as="geometry" />
        </mxCell>
        <mxCell id="W6PKyMDmiwQLr7Aa5-MP-20" style="rounded=0;orthogonalLoop=1;jettySize=auto;html=1;exitX=1;exitY=0.3333333333333333;exitDx=0;exitDy=0;exitPerimeter=0;entryX=0;entryY=0.5;entryDx=0;entryDy=0;labelBackgroundColor=none;fontColor=default;" edge="1" parent="1" source="W6PKyMDmiwQLr7Aa5-MP-3" target="W6PKyMDmiwQLr7Aa5-MP-1">
          <mxGeometry relative="1" as="geometry" />
        </mxCell>
        <mxCell id="W6PKyMDmiwQLr7Aa5-MP-21" style="rounded=0;orthogonalLoop=1;jettySize=auto;html=1;exitX=0.5;exitY=0.5;exitDx=0;exitDy=0;exitPerimeter=0;labelBackgroundColor=none;fontColor=default;" edge="1" parent="1" source="W6PKyMDmiwQLr7Aa5-MP-3" target="W6PKyMDmiwQLr7Aa5-MP-18">
          <mxGeometry relative="1" as="geometry" />
        </mxCell>
        <mxCell id="W6PKyMDmiwQLr7Aa5-MP-48" style="rounded=0;orthogonalLoop=1;jettySize=auto;html=1;exitX=0.5;exitY=0.5;exitDx=0;exitDy=0;exitPerimeter=0;entryX=0;entryY=0.5;entryDx=0;entryDy=0;labelBackgroundColor=none;fontColor=default;" edge="1" parent="1" source="W6PKyMDmiwQLr7Aa5-MP-3" target="W6PKyMDmiwQLr7Aa5-MP-14">
          <mxGeometry relative="1" as="geometry" />
        </mxCell>
        <mxCell id="W6PKyMDmiwQLr7Aa5-MP-49" style="rounded=0;orthogonalLoop=1;jettySize=auto;html=1;exitX=0.5;exitY=0.5;exitDx=0;exitDy=0;exitPerimeter=0;entryX=0;entryY=0.5;entryDx=0;entryDy=0;labelBackgroundColor=none;fontColor=default;" edge="1" parent="1" source="W6PKyMDmiwQLr7Aa5-MP-3" target="W6PKyMDmiwQLr7Aa5-MP-6">
          <mxGeometry relative="1" as="geometry" />
        </mxCell>
        <mxCell id="W6PKyMDmiwQLr7Aa5-MP-3" value="murid/wali murid" style="shape=umlActor;verticalLabelPosition=bottom;verticalAlign=top;html=1;labelBackgroundColor=none;" vertex="1" parent="1">
          <mxGeometry x="30" y="395" width="30" height="60" as="geometry" />
        </mxCell>
        <mxCell id="W6PKyMDmiwQLr7Aa5-MP-55" style="rounded=0;orthogonalLoop=1;jettySize=auto;html=1;exitX=0.5;exitY=0.5;exitDx=0;exitDy=0;exitPerimeter=0;entryX=1;entryY=0.5;entryDx=0;entryDy=0;labelBackgroundColor=none;fontColor=default;" edge="1" parent="1" source="W6PKyMDmiwQLr7Aa5-MP-4" target="W6PKyMDmiwQLr7Aa5-MP-1">
          <mxGeometry relative="1" as="geometry" />
        </mxCell>
        <mxCell id="W6PKyMDmiwQLr7Aa5-MP-63" style="rounded=0;orthogonalLoop=1;jettySize=auto;html=1;exitX=0.5;exitY=0.5;exitDx=0;exitDy=0;exitPerimeter=0;entryX=1;entryY=0.5;entryDx=0;entryDy=0;labelBackgroundColor=none;fontColor=default;" edge="1" parent="1" source="W6PKyMDmiwQLr7Aa5-MP-4" target="W6PKyMDmiwQLr7Aa5-MP-53">
          <mxGeometry relative="1" as="geometry" />
        </mxCell>
        <mxCell id="W6PKyMDmiwQLr7Aa5-MP-64" style="rounded=0;orthogonalLoop=1;jettySize=auto;html=1;exitX=0.5;exitY=0.5;exitDx=0;exitDy=0;exitPerimeter=0;entryX=1;entryY=0.5;entryDx=0;entryDy=0;labelBackgroundColor=none;fontColor=default;" edge="1" parent="1" source="W6PKyMDmiwQLr7Aa5-MP-4" target="W6PKyMDmiwQLr7Aa5-MP-52">
          <mxGeometry relative="1" as="geometry" />
        </mxCell>
        <mxCell id="W6PKyMDmiwQLr7Aa5-MP-65" style="rounded=0;orthogonalLoop=1;jettySize=auto;html=1;exitX=0.5;exitY=0.5;exitDx=0;exitDy=0;exitPerimeter=0;entryX=1;entryY=0.5;entryDx=0;entryDy=0;labelBackgroundColor=none;fontColor=default;" edge="1" parent="1" source="W6PKyMDmiwQLr7Aa5-MP-4" target="W6PKyMDmiwQLr7Aa5-MP-54">
          <mxGeometry relative="1" as="geometry" />
        </mxCell>
        <mxCell id="W6PKyMDmiwQLr7Aa5-MP-72" style="rounded=0;orthogonalLoop=1;jettySize=auto;html=1;exitX=1;exitY=1;exitDx=0;exitDy=0;entryX=0.5;entryY=0;entryDx=0;entryDy=0;dashed=1;labelBackgroundColor=none;fontColor=default;" edge="1" parent="1" source="W6PKyMDmiwQLr7Aa5-MP-1" target="W6PKyMDmiwQLr7Aa5-MP-70">
          <mxGeometry relative="1" as="geometry" />
        </mxCell>
        <mxCell id="W6PKyMDmiwQLr7Aa5-MP-74" value="&amp;lt;&amp;lt;include&amp;gt;&amp;gt;" style="edgeLabel;html=1;align=center;verticalAlign=middle;resizable=0;points=[];labelBackgroundColor=none;" vertex="1" connectable="0" parent="W6PKyMDmiwQLr7Aa5-MP-72">
          <mxGeometry x="-0.2113" y="1" relative="1" as="geometry">
            <mxPoint as="offset" />
          </mxGeometry>
        </mxCell>
        <mxCell id="W6PKyMDmiwQLr7Aa5-MP-1" value="Login" style="ellipse;whiteSpace=wrap;html=1;labelBackgroundColor=none;" vertex="1" parent="1">
          <mxGeometry x="517.5" y="30" width="105" height="60" as="geometry" />
        </mxCell>
        <mxCell id="W6PKyMDmiwQLr7Aa5-MP-6" value="melihat materi" style="ellipse;whiteSpace=wrap;html=1;labelBackgroundColor=none;" vertex="1" parent="1">
          <mxGeometry x="248.75" y="490" width="105" height="60" as="geometry" />
        </mxCell>
        <mxCell id="W6PKyMDmiwQLr7Aa5-MP-14" value="melihat data siswa" style="ellipse;whiteSpace=wrap;html=1;labelBackgroundColor=none;" vertex="1" parent="1">
          <mxGeometry x="353.75" y="380" width="105" height="60" as="geometry" />
        </mxCell>
        <mxCell id="W6PKyMDmiwQLr7Aa5-MP-56" style="rounded=0;orthogonalLoop=1;jettySize=auto;html=1;exitX=1;exitY=1;exitDx=0;exitDy=0;entryX=0;entryY=0;entryDx=0;entryDy=0;dashed=1;labelBackgroundColor=none;fontColor=default;" edge="1" parent="1" source="W6PKyMDmiwQLr7Aa5-MP-18" target="W6PKyMDmiwQLr7Aa5-MP-26">
          <mxGeometry relative="1" as="geometry" />
        </mxCell>
        <mxCell id="W6PKyMDmiwQLr7Aa5-MP-61" value="&amp;lt;&amp;lt;include&amp;gt;&amp;gt;" style="edgeLabel;html=1;align=center;verticalAlign=middle;resizable=0;points=[];labelBackgroundColor=none;" vertex="1" connectable="0" parent="W6PKyMDmiwQLr7Aa5-MP-56">
          <mxGeometry x="-0.3498" y="1" relative="1" as="geometry">
            <mxPoint x="-1" as="offset" />
          </mxGeometry>
        </mxCell>
        <mxCell id="W6PKyMDmiwQLr7Aa5-MP-57" style="rounded=0;orthogonalLoop=1;jettySize=auto;html=1;exitX=0.5;exitY=1;exitDx=0;exitDy=0;dashed=1;labelBackgroundColor=none;fontColor=default;" edge="1" parent="1" source="W6PKyMDmiwQLr7Aa5-MP-18" target="W6PKyMDmiwQLr7Aa5-MP-25">
          <mxGeometry relative="1" as="geometry" />
        </mxCell>
        <mxCell id="W6PKyMDmiwQLr7Aa5-MP-60" value="&amp;lt;&amp;lt;include&amp;gt;&amp;gt;" style="edgeLabel;html=1;align=center;verticalAlign=middle;resizable=0;points=[];labelBackgroundColor=none;" vertex="1" connectable="0" parent="W6PKyMDmiwQLr7Aa5-MP-57">
          <mxGeometry x="-0.2444" y="1" relative="1" as="geometry">
            <mxPoint as="offset" />
          </mxGeometry>
        </mxCell>
        <mxCell id="W6PKyMDmiwQLr7Aa5-MP-58" style="rounded=0;orthogonalLoop=1;jettySize=auto;html=1;exitX=0;exitY=1;exitDx=0;exitDy=0;entryX=0.5;entryY=0;entryDx=0;entryDy=0;dashed=1;labelBackgroundColor=none;fontColor=default;" edge="1" parent="1" source="W6PKyMDmiwQLr7Aa5-MP-18" target="W6PKyMDmiwQLr7Aa5-MP-23">
          <mxGeometry relative="1" as="geometry" />
        </mxCell>
        <mxCell id="W6PKyMDmiwQLr7Aa5-MP-59" value="&amp;lt;&amp;lt;include&amp;gt;&amp;gt;" style="edgeLabel;html=1;align=center;verticalAlign=middle;resizable=0;points=[];labelBackgroundColor=none;" vertex="1" connectable="0" parent="W6PKyMDmiwQLr7Aa5-MP-58">
          <mxGeometry x="-0.2132" y="2" relative="1" as="geometry">
            <mxPoint as="offset" />
          </mxGeometry>
        </mxCell>
        <mxCell id="W6PKyMDmiwQLr7Aa5-MP-18" value="melakukan pembayaran" style="ellipse;whiteSpace=wrap;html=1;labelBackgroundColor=none;" vertex="1" parent="1">
          <mxGeometry x="440" y="220" width="105" height="60" as="geometry" />
        </mxCell>
        <mxCell id="W6PKyMDmiwQLr7Aa5-MP-19" value="ERP YAYASAN&amp;nbsp;" style="text;html=1;align=center;verticalAlign=middle;resizable=0;points=[];autosize=1;strokeColor=none;fillColor=none;fontStyle=1;fontSize=14;labelBackgroundColor=none;" vertex="1" parent="1">
          <mxGeometry x="517.5" width="120" height="30" as="geometry" />
        </mxCell>
        <mxCell id="W6PKyMDmiwQLr7Aa5-MP-23" value="spp" style="ellipse;whiteSpace=wrap;html=1;labelBackgroundColor=none;" vertex="1" parent="1">
          <mxGeometry x="303.75" y="330" width="50" height="30" as="geometry" />
        </mxCell>
        <mxCell id="W6PKyMDmiwQLr7Aa5-MP-25" value="uts" style="ellipse;whiteSpace=wrap;html=1;labelBackgroundColor=none;" vertex="1" parent="1">
          <mxGeometry x="381.25" y="330" width="50" height="30" as="geometry" />
        </mxCell>
        <mxCell id="W6PKyMDmiwQLr7Aa5-MP-26" value="uas" style="ellipse;whiteSpace=wrap;html=1;labelBackgroundColor=none;" vertex="1" parent="1">
          <mxGeometry x="458.75" y="330" width="50" height="30" as="geometry" />
        </mxCell>
        <mxCell id="W6PKyMDmiwQLr7Aa5-MP-89" style="rounded=0;orthogonalLoop=1;jettySize=auto;html=1;exitX=0.5;exitY=0.5;exitDx=0;exitDy=0;exitPerimeter=0;entryX=0;entryY=0.5;entryDx=0;entryDy=0;labelBackgroundColor=none;fontColor=default;" edge="1" parent="1" source="W6PKyMDmiwQLr7Aa5-MP-50" target="W6PKyMDmiwQLr7Aa5-MP-53">
          <mxGeometry relative="1" as="geometry" />
        </mxCell>
        <mxCell id="W6PKyMDmiwQLr7Aa5-MP-90" style="rounded=0;orthogonalLoop=1;jettySize=auto;html=1;exitX=0.5;exitY=0.5;exitDx=0;exitDy=0;exitPerimeter=0;entryX=1;entryY=0.5;entryDx=0;entryDy=0;labelBackgroundColor=none;fontColor=default;" edge="1" parent="1" source="W6PKyMDmiwQLr7Aa5-MP-50" target="W6PKyMDmiwQLr7Aa5-MP-18">
          <mxGeometry relative="1" as="geometry" />
        </mxCell>
        <mxCell id="W6PKyMDmiwQLr7Aa5-MP-91" style="rounded=0;orthogonalLoop=1;jettySize=auto;html=1;exitX=0.5;exitY=0.5;exitDx=0;exitDy=0;exitPerimeter=0;labelBackgroundColor=none;fontColor=default;" edge="1" parent="1" source="W6PKyMDmiwQLr7Aa5-MP-50" target="W6PKyMDmiwQLr7Aa5-MP-52">
          <mxGeometry relative="1" as="geometry" />
        </mxCell>
        <mxCell id="W6PKyMDmiwQLr7Aa5-MP-92" style="rounded=0;orthogonalLoop=1;jettySize=auto;html=1;exitX=0.5;exitY=0.5;exitDx=0;exitDy=0;exitPerimeter=0;labelBackgroundColor=none;fontColor=default;" edge="1" parent="1" source="W6PKyMDmiwQLr7Aa5-MP-50" target="W6PKyMDmiwQLr7Aa5-MP-14">
          <mxGeometry relative="1" as="geometry" />
        </mxCell>
        <mxCell id="W6PKyMDmiwQLr7Aa5-MP-93" style="rounded=0;orthogonalLoop=1;jettySize=auto;html=1;exitX=0.5;exitY=0.5;exitDx=0;exitDy=0;exitPerimeter=0;entryX=0;entryY=1;entryDx=0;entryDy=0;labelBackgroundColor=none;fontColor=default;" edge="1" parent="1" source="W6PKyMDmiwQLr7Aa5-MP-50" target="W6PKyMDmiwQLr7Aa5-MP-54">
          <mxGeometry relative="1" as="geometry" />
        </mxCell>
        <mxCell id="W6PKyMDmiwQLr7Aa5-MP-94" style="rounded=0;orthogonalLoop=1;jettySize=auto;html=1;exitX=0.5;exitY=0.5;exitDx=0;exitDy=0;exitPerimeter=0;entryX=1;entryY=1;entryDx=0;entryDy=0;labelBackgroundColor=none;fontColor=default;" edge="1" parent="1" source="W6PKyMDmiwQLr7Aa5-MP-50" target="W6PKyMDmiwQLr7Aa5-MP-6">
          <mxGeometry relative="1" as="geometry" />
        </mxCell>
        <mxCell id="W6PKyMDmiwQLr7Aa5-MP-50" value="cs" style="shape=umlActor;verticalLabelPosition=bottom;verticalAlign=top;html=1;movable=1;resizable=1;rotatable=1;deletable=1;editable=1;locked=0;connectable=1;labelBackgroundColor=none;" vertex="1" parent="1">
          <mxGeometry x="545" y="750" width="30" height="60" as="geometry" />
        </mxCell>
        <mxCell id="W6PKyMDmiwQLr7Aa5-MP-52" value="menambahkan tugas" style="ellipse;whiteSpace=wrap;html=1;labelBackgroundColor=none;" vertex="1" parent="1">
          <mxGeometry x="637.5" y="380" width="105" height="60" as="geometry" />
        </mxCell>
        <mxCell id="W6PKyMDmiwQLr7Aa5-MP-53" value="rekap nilai" style="ellipse;whiteSpace=wrap;html=1;labelBackgroundColor=none;" vertex="1" parent="1">
          <mxGeometry x="585" y="220" width="105" height="60" as="geometry" />
        </mxCell>
        <mxCell id="W6PKyMDmiwQLr7Aa5-MP-54" value="menambahkan materi" style="ellipse;whiteSpace=wrap;html=1;labelBackgroundColor=none;" vertex="1" parent="1">
          <mxGeometry x="742.5" y="490" width="105" height="60" as="geometry" />
        </mxCell>
        <mxCell id="W6PKyMDmiwQLr7Aa5-MP-70" value="verifikasi berhasi;" style="ellipse;whiteSpace=wrap;html=1;labelBackgroundColor=none;" vertex="1" parent="1">
          <mxGeometry x="576.25" y="130" width="105" height="60" as="geometry" />
        </mxCell>
        <mxCell id="W6PKyMDmiwQLr7Aa5-MP-71" value="verifikasi error" style="ellipse;whiteSpace=wrap;html=1;labelBackgroundColor=none;" vertex="1" parent="1">
          <mxGeometry x="458.75" y="130" width="105" height="60" as="geometry" />
        </mxCell>
        <mxCell id="W6PKyMDmiwQLr7Aa5-MP-73" style="rounded=0;orthogonalLoop=1;jettySize=auto;html=1;exitX=0.5;exitY=0;exitDx=0;exitDy=0;entryX=0.214;entryY=0.9;entryDx=0;entryDy=0;entryPerimeter=0;dashed=1;labelBackgroundColor=none;fontColor=default;" edge="1" parent="1" source="W6PKyMDmiwQLr7Aa5-MP-71" target="W6PKyMDmiwQLr7Aa5-MP-1">
          <mxGeometry relative="1" as="geometry" />
        </mxCell>
        <mxCell id="W6PKyMDmiwQLr7Aa5-MP-75" value="&amp;lt;&amp;lt;extend&amp;gt;&amp;gt;" style="edgeLabel;html=1;align=center;verticalAlign=middle;resizable=0;points=[];labelBackgroundColor=none;" vertex="1" connectable="0" parent="W6PKyMDmiwQLr7Aa5-MP-73">
          <mxGeometry x="-0.0424" relative="1" as="geometry">
            <mxPoint as="offset" />
          </mxGeometry>
        </mxCell>
        <mxCell id="W6PKyMDmiwQLr7Aa5-MP-4" value="staf guru" style="shape=umlActor;verticalLabelPosition=bottom;verticalAlign=top;html=1;labelBackgroundColor=none;" vertex="1" parent="1">
          <mxGeometry x="1037" y="395" width="30" height="60" as="geometry" />
        </mxCell>
      </root>
    </mxGraphModel>
  </diagram>
</mxfile>
